HIERARCHY
ROOT Hips
{
  OFFSET 352.076 86.5813 226.294
  CHANNELS 6 Xposition Yposition Zposition Zrotation Xrotation Yrotation
  JOINT RightUpLeg
  {
    OFFSET -9.25848 -1.52254 -0.00947547
    CHANNELS 6 Xposition Yposition Zposition Zrotation Xrotation Yrotation
    JOINT RightLeg
    {
      OFFSET 0.0379729 -41.8785 0.0492041
      CHANNELS 6 Xposition Yposition Zposition Zrotation Xrotation Yrotation
      JOINT RightFoot
      {
        OFFSET 0.0737403 -43.7597 -0.208372
        CHANNELS 6 Xposition Yposition Zposition Zrotation Xrotation Yrotation
        End Site
        {
          OFFSET 0 -7.69 17.5
        }
      }
    }
  }
  JOINT LeftUpLeg
  {
    OFFSET 9.30605 -1.64847 -0.0333589
    CHANNELS 6 Xposition Yposition Zposition Zrotation Xrotation Yrotation
    JOINT LeftLeg
    {
      OFFSET 0.0845421 -41.8726 -0.0616493
      CHANNELS 6 Xposition Yposition Zposition Zrotation Xrotation Yrotation
      JOINT LeftFoot
      {
        OFFSET 0.763074 -39.9619 0.249975
        CHANNELS 6 Xposition Yposition Zposition Zrotation Xrotation Yrotation
        End Site
        {
          OFFSET 0 -7.69 17.5
        }
      }
    }
  }
  JOINT Spine
  {
    OFFSET 0.11106 14.2934 0.0894584
    CHANNELS 6 Xposition Yposition Zposition Zrotation Xrotation Yrotation
    JOINT Spine1
    {
      OFFSET 0.0557777 9.71798 0.0263676
      CHANNELS 6 Xposition Yposition Zposition Zrotation Xrotation Yrotation
      JOINT Spine2
      {
        OFFSET 0.0442737 10.1145 -0.0117842
        CHANNELS 6 Xposition Yposition Zposition Zrotation Xrotation Yrotation
        JOINT Spine3
        {
          OFFSET 0.0354535 9.71864 0.0136123
          CHANNELS 6 Xposition Yposition Zposition Zrotation Xrotation Yrotation
          JOINT Neck
          {
            OFFSET 0.216864 10.376 0.0850679
            CHANNELS 6 Xposition Yposition Zposition Zrotation Xrotation Yrotation
            JOINT Head
            {
              OFFSET 0.200748 9.48045 0.0859572
              CHANNELS 6 Xposition Yposition Zposition Zrotation Xrotation Yrotation
              End Site
              {
                OFFSET 0 15.95 0
              }
            }
          }
          JOINT RightShoulder
          {
            OFFSET -3.14332 6.95087 0.0722087
            CHANNELS 6 Xposition Yposition Zposition Zrotation Xrotation Yrotation
            JOINT RightArm
            {
              OFFSET -12.7643 0.137663 0.228635
              CHANNELS 6 Xposition Yposition Zposition Zrotation Xrotation Yrotation
              JOINT RightForeArm
              {
                OFFSET -26.5447 -0.389186 -0.00603507
                CHANNELS 6 Xposition Yposition Zposition Zrotation Xrotation Yrotation
                JOINT RightHand
                {
                  OFFSET -26.1282 -0.0585664 0.0704552
                  CHANNELS 6 Xposition Yposition Zposition Zrotation Xrotation Yrotation
                  JOINT RightHandThumb1
                  {
                    OFFSET -2.48905 0.190105 3.12053
                    CHANNELS 6 Xposition Yposition Zposition Zrotation Xrotation Yrotation
                    JOINT RightHandThumb2
                    {
                      OFFSET -3.68274 0 0
                      CHANNELS 6 Xposition Yposition Zposition Zrotation Xrotation Yrotation
                      JOINT RightHandThumb3
                      {
                        OFFSET -2.55832 0 0
                        CHANNELS 6 Xposition Yposition Zposition Zrotation Xrotation Yrotation
                        End Site
                        {
                          OFFSET -2.194 0 0
                        }
                      }
                    }
                  }
                  JOINT RightInHandIndex
                  {
                    OFFSET -3.22368 0.508421 1.97842
                    CHANNELS 6 Xposition Yposition Zposition Zrotation Xrotation Yrotation
                    JOINT RightHandIndex1
                    {
                      OFFSET -5.21684 -0.091368 0.999158
                      CHANNELS 6 Xposition Yposition Zposition Zrotation Xrotation Yrotation
                      JOINT RightHandIndex2
                      {
                        OFFSET -3.61937 0 0
                        CHANNELS 6 Xposition Yposition Zposition Zrotation Xrotation Yrotation
                        JOINT RightHandIndex3
                        {
                          OFFSET -2.0521 0 0
                          CHANNELS 6 Xposition Yposition Zposition Zrotation Xrotation Yrotation
                          End Site
                          {
                            OFFSET -1.805 0 0
                          }
                        }
                      }
                    }
                  }
                  JOINT RightInHandMiddle
                  {
                    OFFSET -3.38211 0.517263 0.756737
                    CHANNELS 6 Xposition Yposition Zposition Zrotation Xrotation Yrotation
                    JOINT RightHandMiddle1
                    {
                      OFFSET -5.17411 -0.084 0.313895
                      CHANNELS 6 Xposition Yposition Zposition Zrotation Xrotation Yrotation
                      JOINT RightHandMiddle2
                      {
                        OFFSET -3.94947 0 0
                        CHANNELS 6 Xposition Yposition Zposition Zrotation Xrotation Yrotation
                        JOINT RightHandMiddle3
                        {
                          OFFSET -2.47579 0 0
                          CHANNELS 6 Xposition Yposition Zposition Zrotation Xrotation Yrotation
                          End Site
                          {
                            OFFSET -1.975 0 0
                          }
                        }
                      }
                    }
                  }
                  JOINT RightInHandRing
                  {
                    OFFSET -3.36516 0.537895 -0.128947
                    CHANNELS 6 Xposition Yposition Zposition Zrotation Xrotation Yrotation
                    JOINT RightHandRing1
                    {
                      OFFSET -4.63474 -0.022105 -0.478947
                      CHANNELS 6 Xposition Yposition Zposition Zrotation Xrotation Yrotation
                      JOINT RightHandRing2
                      {
                        OFFSET -3.44238 0 0
                        CHANNELS 6 Xposition Yposition Zposition Zrotation Xrotation Yrotation
                        JOINT RightHandRing3
                        {
                          OFFSET -2.3881 0 0
                          CHANNELS 6 Xposition Yposition Zposition Zrotation Xrotation Yrotation
                          End Site
                          {
                            OFFSET -1.857 0 0
                          }
                        }
                      }
                    }
                  }
                  JOINT RightInHandPinky
                  {
                    OFFSET -3.16105 0.469368 -1.20179
                    CHANNELS 6 Xposition Yposition Zposition Zrotation Xrotation Yrotation
                    JOINT RightHandPinky1
                    {
                      OFFSET -4.14105 -0.022105 -1.09053
                      CHANNELS 6 Xposition Yposition Zposition Zrotation Xrotation Yrotation
                      JOINT RightHandPinky2
                      {
                        OFFSET -2.75653 0 0
                        CHANNELS 6 Xposition Yposition Zposition Zrotation Xrotation Yrotation
                        JOINT RightHandPinky3
                        {
                          OFFSET -1.74189 0 0
                          CHANNELS 6 Xposition Yposition Zposition Zrotation Xrotation Yrotation
                          End Site
                          {
                            OFFSET -1.645 0 0
                          }
                        }
                      }
                    }
                  }
                }
              }
            }
          }
          JOINT LeftShoulder
          {
            OFFSET 3.26531 6.89455 -0.038198
            CHANNELS 6 Xposition Yposition Zposition Zrotation Xrotation Yrotation
            JOINT LeftArm
            {
              OFFSET 12.4839 0.0180023 -0.0323257
              CHANNELS 6 Xposition Yposition Zposition Zrotation Xrotation Yrotation
              JOINT LeftForeArm
              {
                OFFSET 26.5016 -0.126002 0.247609
                CHANNELS 6 Xposition Yposition Zposition Zrotation Xrotation Yrotation
                JOINT LeftHand
                {
                  OFFSET 25.9993 -0.023235 0.00532866
                  CHANNELS 6 Xposition Yposition Zposition Zrotation Xrotation Yrotation
                  JOINT LeftHandThumb1
                  {
                    OFFSET 2.48905 0.190105 3.12053
                    CHANNELS 6 Xposition Yposition Zposition Zrotation Xrotation Yrotation
                    JOINT LeftHandThumb2
                    {
                      OFFSET 3.68274 0 0
                      CHANNELS 6 Xposition Yposition Zposition Zrotation Xrotation Yrotation
                      JOINT LeftHandThumb3
                      {
                        OFFSET 2.55832 0 0
                        CHANNELS 6 Xposition Yposition Zposition Zrotation Xrotation Yrotation
                        End Site
                        {
                          OFFSET 2.194 0 0
                        }
                      }
                    }
                  }
                  JOINT LeftInHandIndex
                  {
                    OFFSET 3.22368 0.508421 1.97842
                    CHANNELS 6 Xposition Yposition Zposition Zrotation Xrotation Yrotation
                    JOINT LeftHandIndex1
                    {
                      OFFSET 5.21684 -0.091368 0.999158
                      CHANNELS 6 Xposition Yposition Zposition Zrotation Xrotation Yrotation
                      JOINT LeftHandIndex2
                      {
                        OFFSET 3.61937 0 0
                        CHANNELS 6 Xposition Yposition Zposition Zrotation Xrotation Yrotation
                        JOINT LeftHandIndex3
                        {
                          OFFSET 2.0521 0 0
                          CHANNELS 6 Xposition Yposition Zposition Zrotation Xrotation Yrotation
                          End Site
                          {
                            OFFSET 1.805 0 0
                          }
                        }
                      }
                    }
                  }
                  JOINT LeftInHandMiddle
                  {
                    OFFSET 3.38211 0.517263 0.756737
                    CHANNELS 6 Xposition Yposition Zposition Zrotation Xrotation Yrotation
                    JOINT LeftHandMiddle1
                    {
                      OFFSET 5.17411 -0.084 0.313895
                      CHANNELS 6 Xposition Yposition Zposition Zrotation Xrotation Yrotation
                      JOINT LeftHandMiddle2
                      {
                        OFFSET 3.94947 0 0
                        CHANNELS 6 Xposition Yposition Zposition Zrotation Xrotation Yrotation
                        JOINT LeftHandMiddle3
                        {
                          OFFSET 2.47579 0 0
                          CHANNELS 6 Xposition Yposition Zposition Zrotation Xrotation Yrotation
                          End Site
                          {
                            OFFSET 1.975 0 0
                          }
                        }
                      }
                    }
                  }
                  JOINT LeftInHandRing
                  {
                    OFFSET 3.36516 0.537895 -0.128947
                    CHANNELS 6 Xposition Yposition Zposition Zrotation Xrotation Yrotation
                    JOINT LeftHandRing1
                    {
                      OFFSET 4.63474 -0.022105 -0.478947
                      CHANNELS 6 Xposition Yposition Zposition Zrotation Xrotation Yrotation
                      JOINT LeftHandRing2
                      {
                        OFFSET 3.44238 0 0
                        CHANNELS 6 Xposition Yposition Zposition Zrotation Xrotation Yrotation
                        JOINT LeftHandRing3
                        {
                          OFFSET 2.3881 0 0
                          CHANNELS 6 Xposition Yposition Zposition Zrotation Xrotation Yrotation
                          End Site
                          {
                            OFFSET 1.857 0 0
                          }
                        }
                      }
                    }
                  }
                  JOINT LeftInHandPinky
                  {
                    OFFSET 3.16105 0.469368 -1.20179
                    CHANNELS 6 Xposition Yposition Zposition Zrotation Xrotation Yrotation
                    JOINT LeftHandPinky1
                    {
                      OFFSET 4.14105 -0.022105 -1.09053
                      CHANNELS 6 Xposition Yposition Zposition Zrotation Xrotation Yrotation
                      JOINT LeftHandPinky2
                      {
                        OFFSET 2.75653 0 0
                        CHANNELS 6 Xposition Yposition Zposition Zrotation Xrotation Yrotation
                        JOINT LeftHandPinky3
                        {
                          OFFSET 1.74189 0 0
                          CHANNELS 6 Xposition Yposition Zposition Zrotation Xrotation Yrotation
                          End Site
                          {
                            OFFSET 1.645 0 0
                          }
                        }
                      }
                    }
                  }
                }
              }
            }
          }
        }
      }
    }
  }
}
MOTION
Frames:	3
Frame Time:	0.00833333
347.654 85.4138 228.071 24.7034 7.8072 -120.397 -9.33961 -1.58507 -0.0267937 31.0798 -48.5768 27.5949 -0.122568 -41.8088 -0.0450509 -8.74107 16.0934 1.24697 0.708725 -44.7335 0.450155 16.7224 13.7005 35.1736 9.2149 -1.539 0.0840816 40.1144 -20.7909 27.0701 -0.079572 -41.9174 0.0910045 -17.168 46.8217 19.174 2.12725 -40.0461 -1.35417 -6.26356 -28.6032 -5.32625 0.0727512 14.3063 -0.0178596 -4.78319 -1.17979 -11.7285 0.0253638 9.71471 -0.00912093 -1.17563 -0.504894 -2.91442 -0.00164154 10.1205 0.00571769 -1.95779 -0.909031 -4.76874 0.017598 9.71849 -0.0159407 -0.473689 -0.140008 2.71678 -0.0692949 10.3773 -0.047279 -0.998263 -2.4599 36.2427 0.000445792 9.45868 -0.0189633 -8.2123 7.77153 28.6663 -3.20463 6.91951 -0.027505 8.9363 4.72986 -4.62353 -12.7816 -0.00879186 -0.011539 51.3323 -56.0979 6.71628 -26.4363 -0.0511595 -0.0645283 18.3117 -7.32649 127.216 -25.9899 -0.0719819 0.0956481 11.3679 -26.3984 8.17025 -2.48905 0.190105 3.12053 28.184 10.7294 19.1592 -3.68274 5.68434e-14 0 -4.42555e-15 -1.86361e-15 -10 -2.55832 -1.13687e-13 0 -2.19778e-15 -5.19325e-15 -10 -3.22368 0.508421 1.97842 4.27387e-15 0 -1.19271e-15 -5.21684 -0.091368 0.999158 19.9818 0.871897 2.3964 -3.61937 0 0 24 -3.18055e-15 -7.95139e-16 -2.0521 0 5.68434e-14 20 -7.95139e-16 -4.77083e-15 -3.38211 0.517263 0.756737 4.27387e-15 0 -1.19271e-15 -5.17411 -0.084 0.313895 20 0 -1.19271e-15 -3.94947 -5.68434e-14 0 24 -3.18055e-15 2.38542e-15 -2.47579 0 5.68434e-14 20 0 -1.59028e-15 -3.36516 0.537895 -0.128947 4.27387e-15 0 -1.19271e-15 -4.63474 -0.022105 -0.478947 19.9748 -1.02565 -2.81938 -3.44238 0 0 24 3.18055e-15 -7.95139e-16 -2.3881 -2.84217e-14 0 20 3.18055e-15 1.59028e-15 -3.16105 0.469368 -1.20179 4.27387e-15 0 -1.19271e-15 -4.14105 -0.022105 -1.09053 19.7815 -3.00948 -8.30515 -2.75653 5.68434e-14 0 24 3.18055e-15 3.18055e-15 -1.74189 0 0 20 3.18055e-15 1.59028e-15 3.21481 6.92448 -0.0363945 13.2773 -17.66 -50.3397 12.7512 0.0348205 -0.0587248 -15.6859 26.1919 -114.533 26.3824 -0.0641224 0.273611 30.3486 -9.25724 -34.5298 25.9754 -0.0259797 0.172254 -32.0844 -8.11313 -16.2268 2.48905 0.190105 3.12053 -28.184 10.7294 -19.1592 3.68274 0 0 -4.51492e-15 -2.5842e-15 10 2.55832 0 -2.84217e-14 1.1734e-15 -3.57812e-15 10 3.22368 0.508421 1.97842 -2.08724e-15 0 -7.95139e-16 5.21684 -0.091368 0.999158 -19.9818 0.871897 -2.3964 3.61937 2.84217e-14 2.84217e-14 -24 0 -7.95139e-16 2.0521 0 -2.84217e-14 -20 7.95139e-16 -7.95139e-16 3.38211 0.517263 0.756737 -2.08724e-15 0 -7.95139e-16 5.17411 -0.084 0.313895 -20 -1.59028e-15 -1.59028e-15 3.94947 2.84217e-14 0 -24 -1.59028e-15 2.36057e-16 2.47579 0 0 -20 -1.59028e-15 7.95139e-16 3.36516 0.537895 -0.128947 -2.08724e-15 0 -7.95139e-16 4.63474 -0.022105 -0.478947 -19.9748 -1.02565 2.81938 3.44238 0 0 -24 0 -0 2.3881 0 5.68434e-14 -20 1.59028e-15 1.19271e-15 3.16105 0.469368 -1.20179 -2.08724e-15 0 -7.95139e-16 4.14105 -0.022105 -1.09053 -19.7815 -3.00948 8.30515 2.75653 0 0 -24 3.18055e-15 -3.18055e-15 1.74189 0 0 -20 0 -6.85807e-15 
347.725 85.4237 228.127 25.0632 7.95449 -119.609 -9.34119 -1.57578 -0.0272114 30.7167 -49.1811 27.2128 -0.152295 -41.789 -0.0855862 -8.60815 16.1424 0.697128 0.729873 -44.7418 0.428998 16.657 13.7187 35.2074 9.20956 -1.54647 0.0706088 40.2222 -21.6689 26.9508 -0.105942 -41.921 0.0846491 -16.7011 47.082 18.6572 2.0967 -39.9422 -1.23335 -6.26386 -28.5352 -5.32958 0.0886294 14.3065 -0.0198859 -4.68388 -1.10669 -11.8024 0.0254862 9.71495 -0.0109479 -1.15205 -0.483766 -2.93585 -0.00484996 10.1203 0.0057565 -1.91839 -0.873423 -4.80428 0.0181542 9.71849 -0.0162446 -0.47163 -0.142689 2.70883 -0.0766408 10.3773 -0.0587224 -1.00954 -2.45701 35.6731 0.00790269 9.45784 -0.0283933 -8.17742 7.50189 28.9083 -3.20443 6.91943 -0.0272585 8.9708 4.47094 -4.56195 -12.7812 -0.00867183 -0.0153221 52.1102 -55.1598 6.96699 -26.4369 -0.038725 -0.0664141 18.1338 -7.18032 126.441 -25.9882 -0.0709108 0.101015 11.1198 -26.5067 8.81717 -2.48905 0.190105 3.12053 28.184 10.7294 19.1592 -3.68274 -1.13687e-13 0 -3.4076e-15 9.93923e-16 -10 -2.55832 0 0 -1.91824e-15 1.39149e-15 -10 -3.22368 0.508421 1.97842 6.26172e-15 1.59028e-15 -0 -5.21684 -0.091368 0.999158 19.9818 0.871897 2.3964 -3.61937 0 0 24 0 -0 -2.0521 0 0 20 -4.77083e-15 -0 -3.38211 0.517263 0.756737 6.26172e-15 1.59028e-15 -0 -5.17411 -0.084 0.313895 20 1.59028e-15 -1.98785e-15 -3.94947 -5.68434e-14 -5.68434e-14 24 1.59028e-15 7.95139e-16 -2.47579 2.84217e-14 0 20 -1.59028e-15 3.18055e-15 -3.36516 0.537895 -0.128947 6.26172e-15 1.59028e-15 -0 -4.63474 -0.022105 -0.478947 19.9748 -1.02565 -2.81938 -3.44238 0 0 24 -3.18055e-15 -0 -2.3881 -2.84217e-14 0 20 1.59028e-15 -0 -3.16105 0.469368 -1.20179 6.26172e-15 1.59028e-15 -0 -4.14105 -0.022105 -1.09053 19.7815 -3.00948 -8.30515 -2.75653 0 0 24 -6.36111e-15 -2.38542e-15 -1.74189 -2.84217e-14 0 20 -6.36111e-15 -0 3.21453 6.92455 -0.0360438 13.343 -17.8096 -50.263 12.753 0.0326972 -0.0579883 -15.77 26.4766 -114.511 26.3847 -0.0633291 0.268068 30.0792 -9.01034 -33.5962 25.9687 -0.0265306 0.1561 -32.1841 -8.1524 -16.1704 2.48905 0.190105 3.12053 -28.184 10.7294 -19.1592 3.68274 -2.84217e-14 1.42109e-14 3.95161e-15 -2.48481e-15 10 2.55832 0 5.68434e-14 -3.15461e-15 -4.96962e-16 10 3.22368 0.508421 1.97842 -3.37934e-15 -1.59028e-15 -1.59028e-15 5.21684 -0.091368 0.999158 -19.9818 0.871897 -2.3964 3.61937 2.84217e-14 0 -24 1.59028e-15 1.98785e-16 2.0521 0 2.84217e-14 -20 3.18055e-15 -7.95139e-16 3.38211 0.517263 0.756737 -3.37934e-15 -1.59028e-15 -1.59028e-15 5.17411 -0.084 0.313895 -20 0 -3.18055e-15 3.94947 2.84217e-14 0 -24 -1.59028e-15 -2.08724e-15 2.47579 -2.84217e-14 0 -20 3.18055e-15 7.95139e-16 3.36516 0.537895 -0.128947 -3.37934e-15 -1.59028e-15 -1.59028e-15 4.63474 -0.022105 -0.478947 -19.9748 -1.02565 2.81938 3.44238 0 0 -24 -1.59028e-15 3.97569e-16 2.3881 0 0 -20 3.18055e-15 -3.18055e-15 3.16105 0.469368 -1.20179 -3.37934e-15 -1.59028e-15 -1.59028e-15 4.14105 -0.022105 -1.09053 -19.7815 -3.00948 8.30515 2.75653 1.42109e-14 0 -24 0 -2.38542e-15 1.74189 -5.68434e-14 0 -20 3.18055e-15 -1.2424e-17 
347.8 85.4466 228.188 25.4922 8.10317 -118.729 -9.34339 -1.57072 -0.0275887 30.3053 -49.8698 26.7765 -0.164263 -41.7797 -0.102714 -8.53313 16.2751 0.258708 0.768019 -44.7561 0.459047 16.6637 13.6131 35.1372 9.20707 -1.55178 0.0605223 40.3042 -22.6959 26.8537 -0.0866794 -41.9126 0.0588032 -16.2529 47.2745 18.0802 2.11855 -39.8454 -1.12709 -6.12072 -28.4147 -5.26935 0.107278 14.3066 -0.0206106 -4.57611 -1.06446 -11.9178 0.0262789 9.71518 -0.0132016 -1.12568 -0.470065 -2.96636 -0.00763956 10.1202 0.00582272 -1.87448 -0.849593 -4.85417 0.0187405 9.71849 -0.0165456 -0.467467 -0.144167 2.69988 -0.0864337 10.3773 -0.0664232 -1.02152 -2.43823 35.0171 0.0121372 9.45695 -0.0411729 -8.13496 7.22056 29.1895 -3.20429 6.91935 -0.0272418 9.01126 4.186 -4.5224 -12.7809 -0.00859863 -0.0180816 52.9304 -54.079 7.29642 -26.4377 -0.0305332 -0.0649518 17.9656 -7.13992 125.556 -25.9808 -0.0693562 0.122887 10.8932 -26.5369 9.37286 -2.48905 0.190105 3.12053 28.184 10.7294 19.1592 -3.68274 -1.13687e-13 -5.68434e-14 5.52362e-16 1.98785e-15 -10 -2.55832 -5.68434e-14 -5.68434e-14 -5.03926e-15 3.97569e-16 -10 -3.22368 0.508421 1.97842 -0 -3.18055e-15 -0 -5.21684 -0.091368 0.999158 19.9818 0.871897 2.3964 -3.61937 5.68434e-14 0 24 0 -0 -2.0521 0 -5.68434e-14 20 1.59028e-15 -3.18055e-15 -3.38211 0.517263 0.756737 -0 -3.18055e-15 -0 -5.17411 -0.084 0.313895 20 1.59028e-15 2.98177e-16 -3.94947 -5.68434e-14 0 24 -1.59028e-15 -0 -2.47579 0 -5.68434e-14 20 -1.59028e-15 -1.59028e-15 -3.36516 0.537895 -0.128947 -0 -3.18055e-15 -0 -4.63474 -0.022105 -0.478947 19.9748 -1.02565 -2.81938 -3.44238 0 0 24 -3.18055e-15 -1.59028e-15 -2.3881 -2.84217e-14 -5.68434e-14 20 1.59028e-15 -3.18055e-15 -3.16105 0.469368 -1.20179 -0 -3.18055e-15 -0 -4.14105 -0.022105 -1.09053 19.7815 -3.00948 -8.30515 -2.75653 5.68434e-14 5.68434e-14 24 0 2.65874e-15 -1.74189 -2.84217e-14 0 20 0 7.95139e-16 3.21423 6.92461 -0.0357116 13.3821 -17.9223 -50.1719 12.7546 0.0302332 -0.0571939 -15.8272 26.7963 -114.468 26.3878 -0.0623648 0.262249 29.7744 -8.77961 -32.605 25.9632 -0.0270482 0.138706 -32.2846 -8.17609 -16.1281 2.48905 0.190105 3.12053 -28.184 10.7294 -19.1592 3.68274 -2.84217e-14 5.68434e-14 -2.45304e-15 -3.97569e-16 10 2.55832 2.84217e-14 2.84217e-14 5.7473e-16 -3.97569e-16 10 3.22368 0.508421 1.97842 7.95139e-16 0 -0 5.21684 -0.091368 0.999158 -19.9818 0.871897 -2.3964 3.61937 0 0 -24 0 1.19271e-15 2.0521 -5.68434e-14 0 -20 1.59028e-15 -7.95139e-16 3.38211 0.517263 0.756737 7.95139e-16 0 -0 5.17411 -0.084 0.313895 -20 -3.18055e-15 -2.38542e-15 3.94947 2.84217e-14 0 -24 0 -1.59028e-15 2.47579 5.68434e-14 0 -20 3.18055e-15 -2.38542e-15 3.36516 0.537895 -0.128947 7.95139e-16 0 -0 4.63474 -0.022105 -0.478947 -19.9748 -1.02565 2.81938 3.44238 4.26326e-14 0 -24 6.36111e-15 3.97569e-16 2.3881 -2.84217e-14 5.68434e-14 -20 0 -3.18055e-15 3.16105 0.469368 -1.20179 7.95139e-16 0 -0 4.14105 -0.022105 -1.09053 -19.7815 -3.00948 8.30515 2.75653 2.84217e-14 0 -24 3.18055e-15 -2.38542e-15 1.74189 0 5.68434e-14 -20 0 -6.95746e-16 
